<svg version="1.1" id="Layer_1" xmlns="http://www.w3.org/2000/svg" xmlns:xlink="http://www.w3.org/1999/xlink" x="0px" y="0px"
	 width="100%" viewBox="0 0 939 940" enable-background="new 0 0 939 940" xml:space="preserve">
<path fill="#000000" opacity="1.000000" stroke="none" 
	d="
M502.000000,941.000000 
	C334.666656,941.000000 167.833328,941.000000 1.000000,941.000000 
	C1.000000,627.666687 1.000000,314.333344 1.000000,1.000000 
	C314.000000,1.000000 627.000000,1.000000 940.000000,1.000000 
	C940.000000,314.333344 940.000000,627.666687 940.000000,941.000000 
	C794.166687,941.000000 648.333313,941.000000 502.000000,941.000000 
M302.027130,895.536072 
	C303.384186,896.027222 304.728546,896.557373 306.100189,897.003723 
	C321.487885,902.010437 336.656311,907.913147 352.328094,911.767883 
	C371.270935,916.427246 390.587463,919.668823 409.846436,922.903870 
	C421.573212,924.873718 433.483856,926.647827 445.334015,926.801331 
	C471.603485,927.141724 497.963989,928.328003 524.082703,923.990540 
	C539.725037,921.392944 555.394165,918.923218 570.971802,915.976379 
	C601.568237,910.188477 630.745178,899.802734 658.938660,886.873718 
	C685.460815,874.711060 710.767212,860.353943 734.606201,843.294678 
	C754.737671,828.888245 773.571411,813.043518 791.320618,795.931274 
	C801.246338,786.361877 810.332153,775.843262 819.126343,765.198730 
	C829.144470,753.072876 838.963867,740.708679 847.897949,727.776794 
	C866.129700,701.386658 881.655701,673.399780 893.066223,643.367249 
	C899.659180,626.014465 905.613403,608.372009 910.858093,590.566223 
	C916.937683,569.926208 921.138672,548.816467 923.023071,527.313171 
	C924.323486,512.474182 926.498230,497.655029 926.778137,482.798645 
	C927.085510,466.480469 926.095093,450.097626 924.868652,433.803284 
	C923.855774,420.346741 921.750183,406.968262 919.994263,393.572845 
	C917.200989,372.262634 911.540222,351.623993 905.018433,331.208221 
	C894.622559,298.665314 880.602417,267.807556 863.191162,238.355789 
	C843.174866,204.497406 818.938049,174.046616 791.461853,146.080948 
	C785.249878,139.758408 778.529724,133.883591 771.665161,128.264877 
	C758.321716,117.343117 745.106812,106.196266 731.113586,96.152916 
	C711.766418,82.266891 691.216675,70.171066 669.530701,60.259758 
	C653.797058,53.068893 637.935730,45.997002 621.661987,40.186565 
	C598.790039,32.020294 575.403564,25.334698 551.237732,22.015779 
	C533.019592,19.513708 514.805969,15.966577 496.504578,15.323190 
	C469.772095,14.383411 442.889465,13.649498 416.262665,17.995544 
	C399.799072,20.682737 383.116425,22.427866 366.911194,26.217083 
	C329.456451,34.975006 293.485016,48.055824 259.421997,66.139069 
	C235.727356,78.717979 213.099396,92.876312 191.932358,109.444733 
	C172.242386,124.857002 153.101562,140.803406 136.744141,159.807770 
	C125.978836,172.315094 115.164688,184.800095 104.904686,197.717834 
	C90.738228,215.553909 78.721382,234.881302 68.111351,255.001450 
	C61.527000,267.487549 55.201118,280.221985 50.151436,293.379272 
	C42.466625,313.402496 35.077286,333.632965 29.283827,354.258911 
	C24.542103,371.140442 21.712915,388.639130 19.143553,406.027863 
	C16.685959,422.660187 15.050588,439.472748 14.196537,456.264221 
	C13.542053,469.131989 14.395022,482.104736 15.080509,495.004059 
	C15.697191,506.608612 16.513428,518.244263 18.115021,529.744629 
	C20.323816,545.604980 22.538624,561.543030 26.205765,577.104980 
	C33.205887,606.810913 43.093613,635.672913 56.146015,663.280029 
	C67.927086,688.198242 81.621567,712.040833 97.709259,734.561279 
	C112.191353,754.834167 128.090836,773.830994 145.354416,791.692993 
	C153.363739,799.980042 162.215057,807.457947 170.748276,815.232849 
	C186.146393,829.262878 202.955017,841.416809 220.315323,852.896912 
	C245.878708,869.801880 272.819183,883.973328 302.027130,895.536072 
z"/>
<path fill="#FFFFFF" opacity="1.000000" stroke="none" 
	d="
M301.711823,895.286865 
	C272.819183,883.973328 245.878708,869.801880 220.315323,852.896912 
	C202.955017,841.416809 186.146393,829.262878 170.748276,815.232849 
	C162.215057,807.457947 153.363739,799.980042 145.354416,791.692993 
	C128.090836,773.830994 112.191353,754.834167 97.709259,734.561279 
	C81.621567,712.040833 67.927086,688.198242 56.146015,663.280029 
	C43.093613,635.672913 33.205887,606.810913 26.205765,577.104980 
	C22.538624,561.543030 20.323816,545.604980 18.115021,529.744629 
	C16.513428,518.244263 15.697191,506.608612 15.080509,495.004059 
	C14.395022,482.104736 13.542053,469.131989 14.196537,456.264221 
	C15.050588,439.472748 16.685959,422.660187 19.143553,406.027863 
	C21.712915,388.639130 24.542103,371.140442 29.283827,354.258911 
	C35.077286,333.632965 42.466625,313.402496 50.151436,293.379272 
	C55.201118,280.221985 61.527000,267.487549 68.111351,255.001450 
	C78.721382,234.881302 90.738228,215.553909 104.904686,197.717834 
	C115.164688,184.800095 125.978836,172.315094 136.744141,159.807770 
	C153.101562,140.803406 172.242386,124.857002 191.932358,109.444733 
	C213.099396,92.876312 235.727356,78.717979 259.421997,66.139069 
	C293.485016,48.055824 329.456451,34.975006 366.911194,26.217083 
	C383.116425,22.427866 399.799072,20.682737 416.262665,17.995544 
	C442.889465,13.649498 469.772095,14.383411 496.504578,15.323190 
	C514.805969,15.966577 533.019592,19.513708 551.237732,22.015779 
	C575.403564,25.334698 598.790039,32.020294 621.661987,40.186565 
	C637.935730,45.997002 653.797058,53.068893 669.530701,60.259758 
	C691.216675,70.171066 711.766418,82.266891 731.113586,96.152916 
	C745.106812,106.196266 758.321716,117.343117 771.665161,128.264877 
	C778.529724,133.883591 785.249878,139.758408 791.461853,146.080948 
	C818.938049,174.046616 843.174866,204.497406 863.191162,238.355789 
	C880.602417,267.807556 894.622559,298.665314 905.018433,331.208221 
	C911.540222,351.623993 917.200989,372.262634 919.994263,393.572845 
	C921.750183,406.968262 923.855774,420.346741 924.868652,433.803284 
	C926.095093,450.097626 927.085510,466.480469 926.778137,482.798645 
	C926.498230,497.655029 924.323486,512.474182 923.023071,527.313171 
	C921.138672,548.816467 916.937683,569.926208 910.858093,590.566223 
	C905.613403,608.372009 899.659180,626.014465 893.066223,643.367249 
	C881.655701,673.399780 866.129700,701.386658 847.897949,727.776794 
	C838.963867,740.708679 829.144470,753.072876 819.126343,765.198730 
	C810.332153,775.843262 801.246338,786.361877 791.320618,795.931274 
	C773.571411,813.043518 754.737671,828.888245 734.606201,843.294678 
	C710.767212,860.353943 685.460815,874.711060 658.938660,886.873718 
	C630.745178,899.802734 601.568237,910.188477 570.971802,915.976379 
	C555.394165,918.923218 539.725037,921.392944 524.082703,923.990540 
	C497.963989,928.328003 471.603485,927.141724 445.334015,926.801331 
	C433.483856,926.647827 421.573212,924.873718 409.846436,922.903870 
	C390.587463,919.668823 371.270935,916.427246 352.328094,911.767883 
	C336.656311,907.913147 321.487885,902.010437 306.100189,897.003723 
	C304.728546,896.557373 303.384186,896.027222 301.711823,895.286865 
M808.974060,393.818054 
	C805.474487,386.628387 802.100281,379.111023 794.785950,375.068970 
	C780.573547,367.214844 766.447388,359.042938 751.630981,352.480560 
	C728.359131,342.173157 704.866272,332.178894 680.877258,323.725403 
	C652.929565,313.876862 624.474976,305.385773 595.988525,297.179871 
	C580.852783,292.819794 565.236023,290.043457 549.743225,287.031586 
	C531.171936,283.421234 512.550964,280.001404 493.857483,277.106018 
	C479.692352,274.911957 465.412964,273.261200 451.124786,272.105743 
	C433.406769,270.672913 415.635681,269.403564 397.872101,269.152588 
	C376.133240,268.845367 354.374298,269.503845 332.632050,270.060120 
	C319.289032,270.401489 305.959351,271.300507 292.627502,272.020782 
	C288.703552,272.232758 284.778717,272.575134 280.878815,273.056610 
	C270.707214,274.312347 260.539886,275.611115 250.388763,277.021606 
	C242.517075,278.115387 234.658173,279.318512 226.819656,280.628876 
	C218.688675,281.988129 210.626312,283.801636 202.467529,284.941010 
	C188.062103,286.952728 175.087402,291.400574 166.405731,304.080933 
	C160.867523,312.169983 157.363846,321.215363 158.196121,330.898407 
	C159.359131,344.429138 164.923691,356.233795 176.667938,364.056244 
	C185.523651,369.954773 195.416733,373.335815 206.126160,371.823608 
	C216.015671,370.427185 225.694199,367.556427 235.578125,366.096527 
	C255.686020,363.126556 275.828400,360.282471 296.035645,358.128021 
	C311.387939,356.491211 326.853912,355.359802 342.284607,355.155151 
	C363.691071,354.871185 385.121307,355.383148 406.523315,356.095581 
	C421.625336,356.598297 436.714142,357.800385 451.777679,359.062103 
	C464.130768,360.096771 476.508698,361.225372 488.748016,363.131683 
	C505.031738,365.667877 521.347900,368.339569 537.369812,372.136200 
	C564.556396,378.578522 591.763245,385.148254 618.507874,393.175934 
	C639.945984,399.610870 660.974731,407.644897 681.702759,416.145447 
	C703.351868,425.023743 724.543945,435.056183 745.692993,445.095703 
	C754.893311,449.463135 763.771057,452.383514 774.311951,451.179596 
	C799.382874,448.316162 819.126770,419.800140 808.974060,393.818054 
M186.997040,466.682434 
	C186.331360,469.646790 185.213226,472.590454 185.076630,475.579010 
	C184.407166,490.227356 190.715073,501.436615 203.310669,508.533173 
	C209.309265,511.912903 216.228134,514.100891 223.409866,512.786621 
	C240.567688,509.646729 257.615662,505.846436 274.837402,503.134308 
	C289.484314,500.827606 304.280182,499.256378 319.068481,498.115814 
	C334.364532,496.936035 349.725586,496.380066 365.068237,496.099915 
	C375.476044,495.909882 385.907257,496.538177 396.316772,497.036011 
	C406.826813,497.538605 417.355804,498.008545 427.817810,499.070831 
	C444.836639,500.798920 461.863525,502.618469 478.782196,505.111053 
	C493.799591,507.323486 508.906403,509.617493 523.560425,513.454224 
	C548.526855,519.990967 573.344482,527.226501 597.886108,535.209229 
	C614.299133,540.547913 630.357727,547.165588 646.152222,554.164795 
	C662.758667,561.523804 678.837769,570.068420 695.196838,577.992859 
	C701.348511,580.972778 707.502808,582.367004 714.739319,581.216064 
	C732.253296,578.430542 746.461914,562.264526 744.083496,542.771912 
	C742.761841,531.940125 737.736206,523.259949 728.586853,518.155701 
	C712.622498,509.249481 696.159546,501.194977 679.654297,493.309509 
	C651.401672,479.811707 622.069763,468.966492 592.073853,460.110474 
	C570.675232,453.792755 549.016785,448.279327 527.301208,443.137695 
	C513.007507,439.753357 498.454865,437.354980 483.927368,435.100067 
	C472.176300,433.276093 460.305450,432.160065 448.459229,431.028473 
	C432.804901,429.533173 417.135345,427.406555 401.449890,427.191803 
	C368.683624,426.743256 335.864960,425.945648 303.196808,429.954681 
	C295.235077,430.931793 287.157928,431.008728 279.216217,432.099518 
	C266.859161,433.796722 254.548782,435.872345 242.263489,438.041748 
	C231.611938,439.922668 220.876099,441.606079 210.445648,444.383667 
	C199.189423,447.381165 191.612747,455.189362 186.997040,466.682434 
M570.496643,657.999878 
	C577.916748,661.003479 585.495789,663.670532 592.722900,667.082825 
	C606.519104,673.596619 620.106628,680.551514 633.796326,687.291748 
	C642.692444,691.671875 650.745422,698.618103 661.881287,696.030151 
	C672.349304,693.597412 679.528625,687.515442 682.837952,677.311890 
	C685.906494,667.850647 683.371399,659.487244 676.764099,652.288147 
	C669.124390,643.964233 658.190918,640.876648 648.903992,635.178589 
	C642.453552,631.220886 635.111816,628.696960 628.118164,625.647522 
	C612.953735,619.035400 597.970093,611.933838 582.512939,606.088989 
	C567.399597,600.374207 551.909973,595.551636 536.363647,591.114868 
	C521.543213,586.885132 506.536926,583.157166 491.427338,580.133240 
	C476.506226,577.146912 461.408386,574.840027 446.288330,573.103210 
	C427.434662,570.937561 408.497925,568.606201 389.562500,568.265442 
	C365.588837,567.833923 341.576843,569.230469 317.589386,570.068237 
	C311.076019,570.295715 304.560211,571.134949 298.101135,572.075378 
	C288.006195,573.545349 277.909241,575.090271 267.903137,577.060303 
	C254.482101,579.702576 240.965073,582.135925 227.823288,585.843140 
	C213.218750,589.962952 207.172379,604.398865 210.458435,616.616089 
	C214.693512,632.361694 227.338394,639.247498 242.125778,636.818115 
	C265.714752,632.942810 289.082794,627.636902 312.731812,624.242920 
	C328.466919,621.984741 344.516663,621.600586 360.447784,621.132996 
	C372.175140,620.788757 383.945343,621.514160 395.683441,622.048279 
	C405.026917,622.473450 414.388275,623.003601 423.674774,624.069885 
	C438.688263,625.793762 453.800018,627.228027 468.592377,630.177917 
	C490.346313,634.516174 511.981171,639.608276 533.421021,645.304260 
	C545.762268,648.582886 557.619263,653.683838 570.496643,657.999878 
z"/>
<path fill="#000000" opacity="1.000000" stroke="none" 
	d="
M808.988098,394.225525 
	C819.126770,419.800140 799.382874,448.316162 774.311951,451.179596 
	C763.771057,452.383514 754.893311,449.463135 745.692993,445.095703 
	C724.543945,435.056183 703.351868,425.023743 681.702759,416.145447 
	C660.974731,407.644897 639.945984,399.610870 618.507874,393.175934 
	C591.763245,385.148254 564.556396,378.578522 537.369812,372.136200 
	C521.347900,368.339569 505.031738,365.667877 488.748016,363.131683 
	C476.508698,361.225372 464.130768,360.096771 451.777679,359.062103 
	C436.714142,357.800385 421.625336,356.598297 406.523315,356.095581 
	C385.121307,355.383148 363.691071,354.871185 342.284607,355.155151 
	C326.853912,355.359802 311.387939,356.491211 296.035645,358.128021 
	C275.828400,360.282471 255.686020,363.126556 235.578125,366.096527 
	C225.694199,367.556427 216.015671,370.427185 206.126160,371.823608 
	C195.416733,373.335815 185.523651,369.954773 176.667938,364.056244 
	C164.923691,356.233795 159.359131,344.429138 158.196121,330.898407 
	C157.363846,321.215363 160.867523,312.169983 166.405731,304.080933 
	C175.087402,291.400574 188.062103,286.952728 202.467529,284.941010 
	C210.626312,283.801636 218.688675,281.988129 226.819656,280.628876 
	C234.658173,279.318512 242.517075,278.115387 250.388763,277.021606 
	C260.539886,275.611115 270.707214,274.312347 280.878815,273.056610 
	C284.778717,272.575134 288.703552,272.232758 292.627502,272.020782 
	C305.959351,271.300507 319.289032,270.401489 332.632050,270.060120 
	C354.374298,269.503845 376.133240,268.845367 397.872101,269.152588 
	C415.635681,269.403564 433.406769,270.672913 451.124786,272.105743 
	C465.412964,273.261200 479.692352,274.911957 493.857483,277.106018 
	C512.550964,280.001404 531.171936,283.421234 549.743225,287.031586 
	C565.236023,290.043457 580.852783,292.819794 595.988525,297.179871 
	C624.474976,305.385773 652.929565,313.876862 680.877258,323.725403 
	C704.866272,332.178894 728.359131,342.173157 751.630981,352.480560 
	C766.447388,359.042938 780.573547,367.214844 794.785950,375.068970 
	C802.100281,379.111023 805.474487,386.628387 808.988098,394.225525 
z"/>
<path fill="#000000" opacity="1.000000" stroke="none" 
	d="
M187.009933,466.272888 
	C191.612747,455.189362 199.189423,447.381165 210.445648,444.383667 
	C220.876099,441.606079 231.611938,439.922668 242.263489,438.041748 
	C254.548782,435.872345 266.859161,433.796722 279.216217,432.099518 
	C287.157928,431.008728 295.235077,430.931793 303.196808,429.954681 
	C335.864960,425.945648 368.683624,426.743256 401.449890,427.191803 
	C417.135345,427.406555 432.804901,429.533173 448.459229,431.028473 
	C460.305450,432.160065 472.176300,433.276093 483.927368,435.100067 
	C498.454865,437.354980 513.007507,439.753357 527.301208,443.137695 
	C549.016785,448.279327 570.675232,453.792755 592.073853,460.110474 
	C622.069763,468.966492 651.401672,479.811707 679.654297,493.309509 
	C696.159546,501.194977 712.622498,509.249481 728.586853,518.155701 
	C737.736206,523.259949 742.761841,531.940125 744.083496,542.771912 
	C746.461914,562.264526 732.253296,578.430542 714.739319,581.216064 
	C707.502808,582.367004 701.348511,580.972778 695.196838,577.992859 
	C678.837769,570.068420 662.758667,561.523804 646.152222,554.164795 
	C630.357727,547.165588 614.299133,540.547913 597.886108,535.209229 
	C573.344482,527.226501 548.526855,519.990967 523.560425,513.454224 
	C508.906403,509.617493 493.799591,507.323486 478.782196,505.111053 
	C461.863525,502.618469 444.836639,500.798920 427.817810,499.070831 
	C417.355804,498.008545 406.826813,497.538605 396.316772,497.036011 
	C385.907257,496.538177 375.476044,495.909882 365.068237,496.099915 
	C349.725586,496.380066 334.364532,496.936035 319.068481,498.115814 
	C304.280182,499.256378 289.484314,500.827606 274.837402,503.134308 
	C257.615662,505.846436 240.567688,509.646729 223.409866,512.786621 
	C216.228134,514.100891 209.309265,511.912903 203.310669,508.533173 
	C190.715073,501.436615 184.407166,490.227356 185.076630,475.579010 
	C185.213226,472.590454 186.331360,469.646790 187.009933,466.272888 
z"/>
<path fill="#000000" opacity="1.000000" stroke="none" 
	d="
M570.095459,657.982178 
	C557.619263,653.683838 545.762268,648.582886 533.421021,645.304260 
	C511.981171,639.608276 490.346313,634.516174 468.592377,630.177917 
	C453.800018,627.228027 438.688263,625.793762 423.674774,624.069885 
	C414.388275,623.003601 405.026917,622.473450 395.683441,622.048279 
	C383.945343,621.514160 372.175140,620.788757 360.447784,621.132996 
	C344.516663,621.600586 328.466919,621.984741 312.731812,624.242920 
	C289.082794,627.636902 265.714752,632.942810 242.125778,636.818115 
	C227.338394,639.247498 214.693512,632.361694 210.458435,616.616089 
	C207.172379,604.398865 213.218750,589.962952 227.823288,585.843140 
	C240.965073,582.135925 254.482101,579.702576 267.903137,577.060303 
	C277.909241,575.090271 288.006195,573.545349 298.101135,572.075378 
	C304.560211,571.134949 311.076019,570.295715 317.589386,570.068237 
	C341.576843,569.230469 365.588837,567.833923 389.562500,568.265442 
	C408.497925,568.606201 427.434662,570.937561 446.288330,573.103210 
	C461.408386,574.840027 476.506226,577.146912 491.427338,580.133240 
	C506.536926,583.157166 521.543213,586.885132 536.363647,591.114868 
	C551.909973,595.551636 567.399597,600.374207 582.512939,606.088989 
	C597.970093,611.933838 612.953735,619.035400 628.118164,625.647522 
	C635.111816,628.696960 642.453552,631.220886 648.903992,635.178589 
	C658.190918,640.876648 669.124390,643.964233 676.764099,652.288147 
	C683.371399,659.487244 685.906494,667.850647 682.837952,677.311890 
	C679.528625,687.515442 672.349304,693.597412 661.881287,696.030151 
	C650.745422,698.618103 642.692444,691.671875 633.796326,687.291748 
	C620.106628,680.551514 606.519104,673.596619 592.722900,667.082825 
	C585.495789,663.670532 577.916748,661.003479 570.095459,657.982178 
z"/>
</svg>